<svg fill="none" xmlns="http://www.w3.org/2000/svg" viewBox="2.47 2.47 19.06 19.05"><g id="SVGRepo_bgCarrier" stroke-width="0"></g><g id="SVGRepo_tracerCarrier" stroke-linecap="round" stroke-linejoin="round" stroke="#03C988" stroke-width="0.048"><path opacity="0.1" d="M19 3H5C3.89543 3 3 3.89543 3 5V6.17157C3 6.70201 3.21071 7.21071 3.58579 7.58579L9.41421 13.4142C9.78929 13.7893 10 14.298 10 14.8284V20V20.2857C10 20.9183 10.7649 21.2351 11.2122 20.7878L12 20L13.4142 18.5858C13.7893 18.2107 14 17.702 14 17.1716V14.8284C14 14.298 14.2107 13.7893 14.5858 13.4142L20.4142 7.58579C20.7893 7.21071 21 6.70201 21 6.17157V5C21 3.89543 20.1046 3 19 3Z" fill="#03C988"></path><path d="M19 3H5C3.89543 3 3 3.89543 3 5V6.17157C3 6.70201 3.21071 7.21071 3.58579 7.58579L9.41421 13.4142C9.78929 13.7893 10 14.298 10 14.8284V20V20.2857C10 20.9183 10.7649 21.2351 11.2122 20.7878L12 20L13.4142 18.5858C13.7893 18.2107 14 17.702 14 17.1716V14.8284C14 14.298 14.2107 13.7893 14.5858 13.4142L20.4142 7.58579C20.7893 7.21071 21 6.70201 21 6.17157V5C21 3.89543 20.1046 3 19 3Z" stroke="#03C988" stroke-width="1.056" stroke-linecap="round" stroke-linejoin="round"></path></g><g id="SVGRepo_iconCarrier"><path opacity="0.1" d="M19 3H5C3.89543 3 3 3.89543 3 5V6.17157C3 6.70201 3.21071 7.21071 3.58579 7.58579L9.41421 13.4142C9.78929 13.7893 10 14.298 10 14.8284V20V20.2857C10 20.9183 10.7649 21.2351 11.2122 20.7878L12 20L13.4142 18.5858C13.7893 18.2107 14 17.702 14 17.1716V14.8284C14 14.298 14.2107 13.7893 14.5858 13.4142L20.4142 7.58579C20.7893 7.21071 21 6.70201 21 6.17157V5C21 3.89543 20.1046 3 19 3Z" fill="#03C988"></path><path d="M19 3H5C3.89543 3 3 3.89543 3 5V6.17157C3 6.70201 3.21071 7.21071 3.58579 7.58579L9.41421 13.4142C9.78929 13.7893 10 14.298 10 14.8284V20V20.2857C10 20.9183 10.7649 21.2351 11.2122 20.7878L12 20L13.4142 18.5858C13.7893 18.2107 14 17.702 14 17.1716V14.8284C14 14.298 14.2107 13.7893 14.5858 13.4142L20.4142 7.58579C20.7893 7.21071 21 6.70201 21 6.17157V5C21 3.89543 20.1046 3 19 3Z" stroke="#03C988" stroke-width="1.056" stroke-linecap="round" stroke-linejoin="round"></path></g></svg>