<svg fill="#03C988" xmlns="http://www.w3.org/2000/svg" viewBox="1.7 0 28.63 32"><g id="SVGRepo_bgCarrier" stroke-width="0"></g><g id="SVGRepo_tracerCarrier" stroke-linecap="round" stroke-linejoin="round"></g><g id="SVGRepo_iconCarrier"><path d="M12,25.29l-3.29,3.3V1a1,1,0,0,0-2,0V28.59l-3.3-3.3a1,1,0,0,0-1.41,0,1,1,0,0,0,0,1.42l5,5a1,1,0,0,0,.32.21,1.09,1.09,0,0,0,.39.08,1,1,0,0,0,.7-.29l5-5a1,1,0,0,0,0-1.42A1,1,0,0,0,12,25.29Z"></path><path d="M16,2h3.33a1,1,0,0,0,0-2H16a1,1,0,0,0,0,2Z"></path><path d="M16,7h6.67a1,1,0,0,0,0-2H16a1,1,0,0,0,0,2Z"></path><path d="M16,12H26a1,1,0,0,0,0-2H16a1,1,0,0,0,0,2Z"></path><path d="M29.33,15H16a1,1,0,0,0,0,2H29.33a1,1,0,0,0,0-2Z"></path></g></svg>