<svg fill="#03C988" xmlns="http://www.w3.org/2000/svg" viewBox="1.7 0 28.63 32"><g id="SVGRepo_bgCarrier" stroke-width="0"></g><g id="SVGRepo_tracerCarrier" stroke-linecap="round" stroke-linejoin="round"></g><g id="SVGRepo_iconCarrier"><path d="M3.37,6.71l3.3-3.3V31a1,1,0,0,0,2,0V3.41L12,6.71a1,1,0,0,0,1.41-1.42l-5-5A1,1,0,0,0,8.05.08a1,1,0,0,0-.77,0A1,1,0,0,0,7,.29l-5,5A1,1,0,0,0,2,6.71,1,1,0,0,0,3.37,6.71Z"></path><path d="M16,32h3.33a1,1,0,0,0,0-2H16a1,1,0,0,0,0,2Z"></path><path d="M16,27h6.67a1,1,0,0,0,0-2H16a1,1,0,0,0,0,2Z"></path><path d="M16,22H26a1,1,0,0,0,0-2H16a1,1,0,0,0,0,2Z"></path><path d="M16,17H29.33a1,1,0,0,0,0-2H16a1,1,0,0,0,0,2Z"></path></g></svg>