<svg fill="none" xmlns="http://www.w3.org/2000/svg" viewBox="1.25 1.25 21.5 21.5"><g id="SVGRepo_bgCarrier" stroke-width="0"></g><g id="SVGRepo_tracerCarrier" stroke-linecap="round" stroke-linejoin="round"></g><g id="SVGRepo_iconCarrier"><g id="style=bulk"><g id="error-box"><path id="vector (Stroke)" fill-rule="evenodd" clip-rule="evenodd" d="M1.25 8C1.25 4.27208 4.27208 1.25 8 1.25H16C19.7279 1.25 22.75 4.27208 22.75 8V16C22.75 19.7279 19.7279 22.75 16 22.75H8C4.27208 22.75 1.25 19.7279 1.25 16V8Z" fill="#ff6666"></path><path id="vector (Stroke)_2" fill-rule="evenodd" clip-rule="evenodd" d="M8.46967 8.46967C8.76257 8.17678 9.23744 8.17678 9.53033 8.46967L15.5303 14.4697C15.8232 14.7626 15.8232 15.2374 15.5303 15.5303C15.2374 15.8232 14.7625 15.8232 14.4696 15.5303L8.46967 9.53033C8.17678 9.23743 8.17678 8.76256 8.46967 8.46967Z" fill="#fcfcfc"></path><path id="vector (Stroke)_3" fill-rule="evenodd" clip-rule="evenodd" d="M15.5303 8.46967C15.8232 8.76257 15.8232 9.23744 15.5303 9.53033L9.53033 15.5303C9.23743 15.8232 8.76256 15.8232 8.46967 15.5303C8.17678 15.2374 8.17678 14.7625 8.46967 14.4696L14.4697 8.46967C14.7626 8.17678 15.2374 8.17678 15.5303 8.46967Z" fill="#fcfcfc"></path></g></g></g></svg>